<?xml version="1.0" encoding="UTF-8" standalone="no"?>
<!DOCTYPE svg PUBLIC "-//W3C//DTD SVG 1.1//EN" "http://www.w3.org/Graphics/SVG/1.1/DTD/svg11.dtd">
<!-- 由 Microsoft Visio, SVG Export 生成 PCMdataformat.svg Page-1 -->
<svg xmlns="http://www.w3.org/2000/svg" xmlns:xlink="http://www.w3.org/1999/xlink" xmlns:ev="http://www.w3.org/2001/xml-events"
		xmlns:v="http://schemas.microsoft.com/visio/2003/SVGExtensions/" width="5.1019in" height="1.87258in"
		viewBox="0 0 367.337 134.825" xml:space="preserve" color-interpolation-filters="sRGB" class="st12">
	<v:documentProperties v:langID="2052" v:metric="true" v:viewMarkup="false">
		<v:userDefs>
			<v:ud v:nameU="msvNoAutoConnect" v:val="VT0(1):26"/>
		</v:userDefs>
	</v:documentProperties>

	<style type="text/css">
	<![CDATA[
		.st1 {fill:#92cddc;stroke:#000000;stroke-linecap:round;stroke-linejoin:round;stroke-width:0.25}
		.st2 {fill:#000000;font-family:Maven Pro;font-size:0.499992em;font-weight:bold}
		.st3 {fill:#b7dde8;stroke:#000000;stroke-linecap:round;stroke-linejoin:round;stroke-width:0.25}
		.st4 {fill:#ffffff;stroke:#000000;stroke-linecap:round;stroke-linejoin:round;stroke-width:0.25}
		.st5 {fill:#ffffff;stroke:none;stroke-linecap:butt;stroke-width:7.2}
		.st6 {fill:#dbeef3;stroke:#000000;stroke-linecap:round;stroke-linejoin:round;stroke-width:0.25}
		.st7 {font-size:1em}
		.st8 {fill:none;stroke:none;stroke-linecap:round;stroke-linejoin:round;stroke-width:0.25}
		.st9 {marker-end:url(#mrkr13-134);stroke:#000000;stroke-linecap:round;stroke-linejoin:round;stroke-width:0.25}
		.st10 {fill:#000000;fill-opacity:1;stroke:#000000;stroke-opacity:1;stroke-width:0.090252707581227}
		.st11 {fill:#000000;font-family:Maven Pro;font-size:0.499992em}
		.st12 {fill:none;fill-rule:evenodd;font-size:12px;overflow:visible;stroke-linecap:square;stroke-miterlimit:3}
	]]>
	</style>

	<defs id="Markers">
		<g id="lend13">
			<path d="M 3 1 L 0 0 L 3 -1 L 3 1 " style="stroke:none"/>
		</g>
		<marker id="mrkr13-134" class="st10" v:arrowType="13" v:arrowSize="2" v:setback="33.24" refX="-33.24" orient="auto"
				markerUnits="strokeWidth" overflow="visible">
			<use xlink:href="#lend13" transform="scale(-11.08,-11.08) "/>
		</marker>
	</defs>
	<g v:mID="0" v:index="1" v:groupContext="foregroundPage">
		<title>页-1</title>
		<v:pageProperties v:drawingScale="0.0393701" v:pageScale="0.0393701" v:drawingUnits="24" v:shadowOffsetX="8.50394"
				v:shadowOffsetY="-8.50394"/>
		<g id="group1-1" transform="translate(94.0935,-83.8186)" v:mID="1" v:groupContext="group">
			<title>工作表.1</title>
			<desc>left</desc>
			<g id="shape2-2" v:mID="2" v:groupContext="shape">
				<title>工作表.2</title>
				<path d="M51.02 134.83 L25.51 134.83 L0 134.83 L0 122.92 L31.89 122.92 L51.02 122.92 L51.02 134.83 Z" class="st1"/>
			</g>
			<g id="shape1-4" v:mID="1" v:groupContext="groupContent">
				<v:textBlock v:margins="rect(4,4,4,4)" v:tabSpace="42.5197"/>
				<v:textRect cx="25.5118" cy="128.873" width="51.03" height="11.9055"/>
				<text x="20.64" y="130.67" class="st2" v:langID="2052"><v:paragraph v:horizAlign="1"/><v:tabList/>left</text>			</g>
		</g>
		<g id="group3-6" transform="translate(145.117,-83.8186)" v:mID="3" v:groupContext="group">
			<title>工作表.3</title>
			<desc>right</desc>
			<g id="shape4-7" v:mID="4" v:groupContext="shape">
				<title>工作表.4</title>
				<path d="M51.02 134.83 L25.51 134.83 L0 134.83 L0 122.92 L31.89 122.92 L51.02 122.92 L51.02 134.83 Z" class="st1"/>
			</g>
			<g id="shape3-9" v:mID="3" v:groupContext="groupContent">
				<v:textBlock v:margins="rect(4,4,4,4)" v:tabSpace="42.5197"/>
				<v:textRect cx="25.5118" cy="128.873" width="51.03" height="11.9055"/>
				<text x="18.89" y="130.67" class="st2" v:langID="2052"><v:paragraph v:horizAlign="1"/><v:tabList/>right</text>			</g>
		</g>
		<g id="group5-11" transform="translate(196.141,-83.8186)" v:mID="5" v:groupContext="group">
			<title>工作表.5</title>
			<desc>left</desc>
			<g id="shape6-12" v:mID="6" v:groupContext="shape">
				<title>工作表.6</title>
				<path d="M51.02 134.83 L25.51 134.83 L0 134.83 L0 122.92 L31.89 122.92 L51.02 122.92 L51.02 134.83 Z" class="st3"/>
			</g>
			<g id="shape5-14" v:mID="5" v:groupContext="groupContent">
				<v:textBlock v:margins="rect(4,4,4,4)" v:tabSpace="42.5197"/>
				<v:textRect cx="25.5118" cy="128.873" width="51.03" height="11.9055"/>
				<text x="20.64" y="130.67" class="st2" v:langID="2052"><v:paragraph v:horizAlign="1"/><v:tabList/>left</text>			</g>
		</g>
		<g id="group7-16" transform="translate(247.164,-83.8186)" v:mID="7" v:groupContext="group">
			<title>工作表.7</title>
			<desc>right</desc>
			<g id="shape8-17" v:mID="8" v:groupContext="shape">
				<title>工作表.8</title>
				<path d="M51.02 134.83 L25.51 134.83 L0 134.83 L0 122.92 L31.89 122.92 L51.02 122.92 L51.02 134.83 Z" class="st3"/>
			</g>
			<g id="shape7-19" v:mID="7" v:groupContext="groupContent">
				<v:textBlock v:margins="rect(4,4,4,4)" v:tabSpace="42.5197"/>
				<v:textRect cx="25.5118" cy="128.873" width="51.03" height="11.9055"/>
				<text x="18.89" y="130.67" class="st2" v:langID="2052"><v:paragraph v:horizAlign="1"/><v:tabList/>right</text>			</g>
		</g>
		<g id="group9-21" transform="translate(298.188,-83.8186)" v:mID="9" v:groupContext="group">
			<title>工作表.9</title>
			<g id="shape10-22" v:mID="10" v:groupContext="shape">
				<title>工作表.10</title>
				<desc>...</desc>
				<v:textBlock v:margins="rect(4,4,4,4)" v:tabSpace="42.5197"/>
				<v:textRect cx="25.5118" cy="128.873" width="51.03" height="11.9055"/>
				<path d="M51.02 134.83 L25.51 134.83 L0 134.83 L0 122.92 L31.89 122.92 L51.02 122.92 L51.02 134.83 Z" class="st4"/>
				<rect v:rectContext="textBkgnd" x="22.1765" y="125.273" width="6.6709" height="7.20016" class="st5"/>
				<text x="22.18" y="130.67" class="st2" v:langID="2052"><v:paragraph v:horizAlign="1"/><v:tabList/>...</text>			</g>
		</g>
		<g id="group11-26" transform="translate(94.0935,-104.795)" v:mID="11" v:groupContext="group">
			<title>工作表.11</title>
			<desc>mono</desc>
			<g id="shape12-27" v:mID="12" v:groupContext="shape">
				<title>工作表.12</title>
				<path d="M51.02 134.83 L25.51 134.83 L0 134.83 L0 122.92 L31.89 122.92 L51.02 122.92 L51.02 134.83 Z" class="st1"/>
			</g>
			<g id="shape11-29" v:mID="11" v:groupContext="groupContent">
				<v:textBlock v:margins="rect(4,4,4,4)" v:tabSpace="42.5197"/>
				<v:textRect cx="25.5118" cy="128.873" width="51.03" height="11.9055"/>
				<text x="17.46" y="130.67" class="st2" v:langID="2052"><v:paragraph v:horizAlign="1"/><v:tabList/>mono</text>			</g>
		</g>
		<g id="group13-31" transform="translate(145.117,-104.795)" v:mID="13" v:groupContext="group">
			<title>工作表.13</title>
			<desc>stereo</desc>
			<g id="shape14-32" v:mID="14" v:groupContext="shape">
				<title>工作表.14</title>
				<path d="M51.02 134.83 L25.51 134.83 L0 134.83 L0 122.92 L31.89 122.92 L51.02 122.92 L51.02 134.83 Z" class="st6"/>
			</g>
			<g id="shape13-34" v:mID="13" v:groupContext="groupContent">
				<v:textBlock v:margins="rect(4,4,4,4)" v:tabSpace="42.5197"/>
				<v:textRect cx="25.5118" cy="128.873" width="51.03" height="11.9055"/>
				<text x="16.86" y="130.67" class="st2" v:langID="2052"><v:paragraph v:horizAlign="1"/><v:tabList/>stereo</text>			</g>
		</g>
		<g id="group15-36" transform="translate(196.141,-104.795)" v:mID="15" v:groupContext="group">
			<title>工作表.15</title>
			<g id="shape16-37" v:mID="16" v:groupContext="shape">
				<title>工作表.16</title>
				<desc>...</desc>
				<v:textBlock v:margins="rect(4,4,4,4)" v:tabSpace="42.5197"/>
				<v:textRect cx="25.5118" cy="128.873" width="51.03" height="11.9055"/>
				<path d="M51.02 134.83 L25.51 134.83 L0 134.83 L0 122.92 L31.89 122.92 L51.02 122.92 L51.02 134.83 Z" class="st4"/>
				<rect v:rectContext="textBkgnd" x="22.1765" y="125.273" width="6.6709" height="7.20016" class="st5"/>
				<text x="22.18" y="130.67" class="st2" v:langID="2052"><v:paragraph v:horizAlign="1"/><v:tabList/>...</text>			</g>
		</g>
		<g id="group17-41" transform="translate(94.0935,-40.165)" v:mID="17" v:groupContext="group">
			<title>工作表.17</title>
			<desc>Left (lower byte)</desc>
			<g id="shape18-42" v:mID="18" v:groupContext="shape">
				<title>工作表.18</title>
				<path d="M51.02 134.83 L25.51 134.83 L0 134.83 L0 122.92 L31.89 122.92 L51.02 122.92 L51.02 134.83 Z" class="st1"/>
			</g>
			<g id="shape17-44" v:mID="17" v:groupContext="groupContent">
				<v:textBlock v:margins="rect(4,4,4,4)" v:tabSpace="42.5197"/>
				<v:textRect cx="25.5118" cy="128.873" width="51.03" height="11.9055"/>
				<text x="9.91" y="127.07" class="st2" v:langID="2052"><v:paragraph v:horizAlign="1"/><v:tabList/>Left (lower <tspan
							x="18.22" dy="1.2em" class="st7">byte</tspan>)</text>			</g>
		</g>
		<g id="group19-47" transform="translate(145.117,-40.165)" v:mID="19" v:groupContext="group">
			<title>工作表.19</title>
			<desc>Left (higher byte)</desc>
			<g id="shape20-48" v:mID="20" v:groupContext="shape">
				<title>工作表.20</title>
				<path d="M51.02 134.83 L25.51 134.83 L0 134.83 L0 122.92 L31.89 122.92 L51.02 122.92 L51.02 134.83 Z" class="st1"/>
			</g>
			<g id="shape19-50" v:mID="19" v:groupContext="groupContent">
				<v:textBlock v:margins="rect(4,4,4,4)" v:tabSpace="42.5197"/>
				<v:textRect cx="25.5118" cy="128.873" width="51.03" height="11.9055"/>
				<text x="8.91" y="127.07" class="st2" v:langID="2052"><v:paragraph v:horizAlign="1"/><v:tabList/>Left (higher <tspan
							x="18.22" dy="1.2em" class="st7">byte</tspan>)</text>			</g>
		</g>
		<g id="group21-53" transform="translate(196.141,-40.165)" v:mID="21" v:groupContext="group">
			<title>工作表.21</title>
			<desc>Right (lower byte)</desc>
			<g id="shape22-54" v:mID="22" v:groupContext="shape">
				<title>工作表.22</title>
				<path d="M51.02 134.83 L25.51 134.83 L0 134.83 L0 122.92 L31.89 122.92 L51.02 122.92 L51.02 134.83 Z" class="st1"/>
			</g>
			<g id="shape21-56" v:mID="21" v:groupContext="groupContent">
				<v:textBlock v:margins="rect(4,4,4,4)" v:tabSpace="42.5197"/>
				<v:textRect cx="25.5118" cy="128.873" width="51.03" height="11.9055"/>
				<text x="7.97" y="127.07" class="st2" v:langID="2052"><v:paragraph v:horizAlign="1"/><v:tabList/>Right (lower <tspan
							x="18.22" dy="1.2em" class="st7">byte</tspan>)</text>			</g>
		</g>
		<g id="group23-59" transform="translate(247.164,-40.165)" v:mID="23" v:groupContext="group">
			<title>工作表.23</title>
			<desc>Right (higher byte)</desc>
			<g id="shape24-60" v:mID="24" v:groupContext="shape">
				<title>工作表.24</title>
				<path d="M51.02 134.83 L25.51 134.83 L0 134.83 L0 122.92 L31.89 122.92 L51.02 122.92 L51.02 134.83 Z" class="st1"/>
			</g>
			<g id="shape23-62" v:mID="23" v:groupContext="groupContent">
				<v:textBlock v:margins="rect(4,4,4,4)" v:tabSpace="42.5197"/>
				<v:textRect cx="25.5118" cy="128.873" width="51.03" height="11.9055"/>
				<text x="6.96" y="127.07" class="st2" v:langID="2052"><v:paragraph v:horizAlign="1"/><v:tabList/>Right (higher <tspan
							x="18.22" dy="1.2em" class="st7">byte</tspan>)</text>			</g>
		</g>
		<g id="group25-65" transform="translate(298.188,-40.165)" v:mID="25" v:groupContext="group">
			<title>工作表.25</title>
			<g id="shape26-66" v:mID="26" v:groupContext="shape">
				<title>工作表.26</title>
				<desc>...</desc>
				<v:textBlock v:margins="rect(4,4,4,4)" v:tabSpace="42.5197"/>
				<v:textRect cx="25.5118" cy="128.873" width="51.03" height="11.9055"/>
				<path d="M51.02 134.83 L25.51 134.83 L0 134.83 L0 122.92 L31.89 122.92 L51.02 122.92 L51.02 134.83 Z" class="st4"/>
				<rect v:rectContext="textBkgnd" x="22.1765" y="125.273" width="6.6709" height="7.20016" class="st5"/>
				<text x="22.18" y="130.67" class="st2" v:langID="2052"><v:paragraph v:horizAlign="1"/><v:tabList/>...</text>			</g>
		</g>
		<g id="group27-70" transform="translate(94.0935,-61.1414)" v:mID="27" v:groupContext="group">
			<title>工作表.27</title>
			<desc>Mono (lower byte)</desc>
			<g id="shape28-71" v:mID="28" v:groupContext="shape">
				<title>工作表.28</title>
				<path d="M51.02 134.83 L25.51 134.83 L0 134.83 L0 122.92 L31.89 122.92 L51.02 122.92 L51.02 134.83 Z" class="st1"/>
			</g>
			<g id="shape27-73" v:mID="27" v:groupContext="groupContent">
				<v:textBlock v:margins="rect(4,4,4,4)" v:tabSpace="42.5197"/>
				<v:textRect cx="25.5118" cy="128.873" width="51.03" height="11.9055"/>
				<text x="7.73" y="127.07" class="st2" v:langID="2052"><v:paragraph v:horizAlign="1"/><v:tabList/>Mono (lower <tspan
							x="18.22" dy="1.2em" class="st7">byte</tspan>)</text>			</g>
		</g>
		<g id="group29-76" transform="translate(145.117,-61.1414)" v:mID="29" v:groupContext="group">
			<title>工作表.29</title>
			<desc>Mono (higher byte)</desc>
			<g id="shape30-77" v:mID="30" v:groupContext="shape">
				<title>工作表.30</title>
				<path d="M51.02 134.83 L25.51 134.83 L0 134.83 L0 122.92 L31.89 122.92 L51.02 122.92 L51.02 134.83 Z" class="st1"/>
			</g>
			<g id="shape29-79" v:mID="29" v:groupContext="groupContent">
				<v:textBlock v:margins="rect(4,4,4,4)" v:tabSpace="42.5197"/>
				<v:textRect cx="25.5118" cy="128.873" width="51.03" height="11.9055"/>
				<text x="6.72" y="127.07" class="st2" v:langID="2052"><v:paragraph v:horizAlign="1"/><v:tabList/>Mono (higher <tspan
							x="18.22" dy="1.2em" class="st7">byte</tspan>)</text>			</g>
		</g>
		<g id="group31-82" transform="translate(196.141,-61.1414)" v:mID="31" v:groupContext="group">
			<title>工作表.31</title>
			<desc>Mono (lower byte)</desc>
			<g id="shape32-83" v:mID="32" v:groupContext="shape">
				<title>工作表.32</title>
				<path d="M51.02 134.83 L25.51 134.83 L0 134.83 L0 122.92 L31.89 122.92 L51.02 122.92 L51.02 134.83 Z" class="st3"/>
			</g>
			<g id="shape31-85" v:mID="31" v:groupContext="groupContent">
				<v:textBlock v:margins="rect(4,4,4,4)" v:tabSpace="42.5197"/>
				<v:textRect cx="25.5118" cy="128.873" width="51.03" height="11.9055"/>
				<text x="7.73" y="127.07" class="st2" v:langID="2052"><v:paragraph v:horizAlign="1"/><v:tabList/>Mono (lower <tspan
							x="18.22" dy="1.2em" class="st7">byte</tspan>)</text>			</g>
		</g>
		<g id="group33-88" transform="translate(247.164,-61.1414)" v:mID="33" v:groupContext="group">
			<title>工作表.33</title>
			<desc>Mono (higher byte)</desc>
			<g id="shape34-89" v:mID="34" v:groupContext="shape">
				<title>工作表.34</title>
				<path d="M51.02 134.83 L25.51 134.83 L0 134.83 L0 122.92 L31.89 122.92 L51.02 122.92 L51.02 134.83 Z" class="st3"/>
			</g>
			<g id="shape33-91" v:mID="33" v:groupContext="groupContent">
				<v:textBlock v:margins="rect(4,4,4,4)" v:tabSpace="42.5197"/>
				<v:textRect cx="25.5118" cy="128.873" width="51.03" height="11.9055"/>
				<text x="6.72" y="127.07" class="st2" v:langID="2052"><v:paragraph v:horizAlign="1"/><v:tabList/>Mono (higher <tspan
							x="18.22" dy="1.2em" class="st7">byte</tspan>)</text>			</g>
		</g>
		<g id="group35-94" transform="translate(298.188,-61.1414)" v:mID="35" v:groupContext="group">
			<title>工作表.35</title>
			<g id="shape36-95" v:mID="36" v:groupContext="shape">
				<title>工作表.36</title>
				<desc>...</desc>
				<v:textBlock v:margins="rect(4,4,4,4)" v:tabSpace="42.5197"/>
				<v:textRect cx="25.5118" cy="128.873" width="51.03" height="11.9055"/>
				<path d="M51.02 134.83 L25.51 134.83 L0 134.83 L0 122.92 L31.89 122.92 L51.02 122.92 L51.02 134.83 Z" class="st4"/>
				<rect v:rectContext="textBkgnd" x="22.1765" y="125.273" width="6.6709" height="7.20016" class="st5"/>
				<text x="22.18" y="130.67" class="st2" v:langID="2052"><v:paragraph v:horizAlign="1"/><v:tabList/>...</text>			</g>
		</g>
		<g id="group37-99" transform="translate(23.2274,-104.795)" v:mID="37" v:groupContext="group">
			<title>工作表.37</title>
			<desc>8-bit mono (PCM)</desc>
			<g id="shape38-100" v:mID="38" v:groupContext="shape">
				<title>工作表.38</title>
				<path d="M61.23 134.83 L30.61 134.83 L0 134.83 L0 122.92 L38.27 122.92 L61.23 122.92 L61.23 134.83 Z" class="st8"/>
			</g>
			<g id="shape37-102" v:mID="37" v:groupContext="groupContent">
				<v:textBlock v:margins="rect(4,4,4,4)" v:tabSpace="42.5197"/>
				<v:textRect cx="30.6142" cy="128.873" width="61.23" height="11.9055"/>
				<text x="5.06" y="130.67" class="st2" v:langID="1033"><v:paragraph v:horizAlign="1"/><v:tabList/>8-bit mono (PCM)</text>			</g>
		</g>
		<g id="group39-104" transform="translate(23.2274,-83.8186)" v:mID="39" v:groupContext="group">
			<title>工作表.39</title>
			<desc>8-bit stereo (PCM)</desc>
			<g id="shape40-105" v:mID="40" v:groupContext="shape">
				<title>工作表.40</title>
				<path d="M61.23 134.83 L30.61 134.83 L0 134.83 L0 122.92 L38.27 122.92 L61.23 122.92 L61.23 134.83 Z" class="st8"/>
			</g>
			<g id="shape39-107" v:mID="39" v:groupContext="groupContent">
				<v:textBlock v:margins="rect(4,4,4,4)" v:tabSpace="42.5197"/>
				<v:textRect cx="30.6142" cy="128.873" width="61.23" height="11.9055"/>
				<text x="4.47" y="130.67" class="st2" v:langID="1033"><v:paragraph v:horizAlign="1"/><v:tabList/>8-bit stereo (PCM)</text>			</g>
		</g>
		<g id="group41-109" transform="translate(18.125,-61.1414)" v:mID="41" v:groupContext="group">
			<title>工作表.41</title>
			<desc>16-bit mono (PCM)</desc>
			<g id="shape42-110" v:mID="42" v:groupContext="shape">
				<title>工作表.42</title>
				<path d="M66.33 134.83 L33.17 134.83 L0 134.83 L0 122.92 L41.46 122.92 L66.33 122.92 L66.33 134.83 Z" class="st8"/>
			</g>
			<g id="shape41-112" v:mID="41" v:groupContext="groupContent">
				<v:textBlock v:margins="rect(4,4,4,4)" v:tabSpace="42.5197"/>
				<v:textRect cx="33.1654" cy="128.873" width="66.34" height="11.9055"/>
				<text x="6.18" y="130.67" class="st2" v:langID="2052"><v:paragraph v:horizAlign="1"/><v:tabList/>16<tspan
							class="st7" v:langID="1033">-</tspan><tspan class="st7" v:langID="1033">bit mono </tspan><tspan
							class="st7" v:langID="1033">(</tspan><tspan class="st7" v:langID="1033">PCM</tspan><tspan class="st7"
							v:langID="1033">)</tspan></text>			</g>
		</g>
		<g id="group43-119" transform="translate(18.125,-40.165)" v:mID="43" v:groupContext="group">
			<title>工作表.43</title>
			<desc>16-bit stereo (PCM)</desc>
			<g id="shape44-120" v:mID="44" v:groupContext="shape">
				<title>工作表.44</title>
				<path d="M66.33 134.83 L33.17 134.83 L0 134.83 L0 122.92 L41.46 122.92 L66.33 122.92 L66.33 134.83 Z" class="st8"/>
			</g>
			<g id="shape43-122" v:mID="43" v:groupContext="groupContent">
				<v:textBlock v:margins="rect(4,4,4,4)" v:tabSpace="42.5197"/>
				<v:textRect cx="33.1654" cy="128.873" width="66.34" height="11.9055"/>
				<text x="5.59" y="130.67" class="st2" v:langID="2052"><v:paragraph v:horizAlign="1"/><v:tabList/>16<tspan
							class="st7" v:langID="1033">-</tspan><tspan class="st7" v:langID="1033">bit stereo </tspan><tspan
							class="st7" v:langID="1033">(</tspan><tspan class="st7" v:langID="1033">PCM</tspan><tspan class="st7"
							v:langID="1033">)</tspan></text>			</g>
		</g>
		<g id="shape45-129" v:mID="45" v:groupContext="shape" transform="translate(115.353,-26.7595)">
			<title>工作表.45</title>
			<desc>Address increasing</desc>
			<v:textBlock v:margins="rect(4,4,4,4)" v:tabSpace="42.5197"/>
			<v:textRect cx="88.5827" cy="134.825" width="177.17" height="0"/>
			<path d="M0 134.83 L168.86 134.83" class="st9"/>
			<rect v:rectContext="textBkgnd" x="63.3485" y="131.226" width="50.4682" height="7.20016" class="st5"/>
			<text x="63.35" y="136.63" class="st11" v:langID="2052"><v:paragraph v:horizAlign="1"/><v:tabList/>Address increasing</text>		</g>
	</g>
</svg>
